#Comment line ignore any data following # character 
#Hierarchical Translation and Rotation (.htr) file 
[Header]	
#Header keywords are followed by a single value 
FileType HTR		#Single word string
DataType HTRS		#Translation followed by rotation and scale data
FileVersion 1		#integer
NumSegments 84		#integer
NumFrames 2		#integer
DataFrameRate 30		#integer, data frame rate in this file
EulerRotationOrder ZYX
CalibrationUnits mm
RotationUnits Degrees
GlobalAxisofGravity Y
BoneLengthAxis Y
ScaleFactor 1.00
[SegmentNames&Hierarchy]
#CHILD	PARENT
MASTER GLOBAL
root MASTER
chest root
L_mid_tent01 root
R_mid_tent01 root
spine01 root
Bip01_Neck chest
L_humerus chest
R_humerus chest
weapon_bone chest
Bip01_Head Bip01_Neck
eye_left_bone Bip01_Head
eye_right_bone Bip01_Head
L_forearm L_humerus
L_front_hand L_forearm
L_weapon_bone L_forearm
L_front_hand01_01 L_front_hand
L_front_hand02_01 L_front_hand
L_front_hand03_01 L_front_hand
L_front_hand01_02 L_front_hand01_01
L_front_hand02_02 L_front_hand02_01
L_front_hand03_02 L_front_hand03_01
R_forearm R_humerus
R_front_hand R_forearm
R_weapon_bone R_forearm
R_front_hand01_01 R_front_hand
R_front_hand02_01 R_front_hand
R_front_hand03_01 R_front_hand
R_front_hand01_02 R_front_hand01_01
R_front_hand02_02 R_front_hand02_01
R_front_hand03_02 R_front_hand03_01
null_rope01_connect L_mid_tent01
Rope1_Seg01 null_rope01_connect
Rope1_Seg02 Rope1_Seg01
Rope1_Seg03 Rope1_Seg02
Rope1_Seg04 Rope1_Seg03
Rope1_Seg05 Rope1_Seg04
Rope1_Seg06 Rope1_Seg05
Rope1_Seg07 Rope1_Seg06
Rope1_Seg09 Rope1_Seg07
L_mid_hand01 Rope1_Seg09
L_mid_hand02 Rope1_Seg09
L_mid_hand03 Rope1_Seg09
null_rope02_connect R_mid_tent01
Rope2_Seg01 null_rope02_connect
Rope2_Seg02 Rope2_Seg01
Rope2_Seg03 Rope2_Seg02
Rope2_Seg04 Rope2_Seg03
Rope2_Seg05 Rope2_Seg04
Rope2_Seg06 Rope2_Seg05
Rope2_Seg07 Rope2_Seg06
Rope2_Seg09 Rope2_Seg07
R_mid_hand01 Rope2_Seg09
R_mid_hand02 Rope2_Seg09
R_mid_hand03 Rope2_Seg09
spine02 spine01
spine03 spine02
pelvis spine03
null_rope03_connect pelvis
null_rope04_connect pelvis
Rope3_Seg01 null_rope03_connect
Rope3_Seg02 Rope3_Seg01
Rope3_Seg03 Rope3_Seg02
Rope3_Seg04 Rope3_Seg03
Rope3_Seg05 Rope3_Seg04
Rope3_Seg06 Rope3_Seg05
Rope3_Seg07 Rope3_Seg06
Rope3_Seg08 Rope3_Seg07
Rope3_Seg09 Rope3_Seg08
R_rear_hand01 Rope3_Seg09
R_rear_hand02 Rope3_Seg09
R_rear_hand03 Rope3_Seg09
Rope4_Seg01 null_rope04_connect
Rope4_Seg02 Rope4_Seg01
Rope4_Seg03 Rope4_Seg02
Rope4_Seg04 Rope4_Seg03
Rope4_Seg05 Rope4_Seg04
Rope4_Seg06 Rope4_Seg05
Rope4_Seg07 Rope4_Seg06
Rope4_Seg08 Rope4_Seg07
Rope4_Seg09 Rope4_Seg08
L_rear_hand01 Rope4_Seg09
L_rear_hand02 Rope4_Seg09
L_rear_hand03 Rope4_Seg09
[BasePosition]
#SegmentName Tx, Ty, Tz, Rx, Ry, Rz, BoneLength
MASTER 0.000000 0.000000 0.000000 -90.000000 0.000000 0.000000 10.000000 
root 0.000000 0.000000 0.000000 0.000000 0.000000 0.000000 10.000000 
chest 0.000000 0.000000 0.000000 0.000000 0.000000 0.000000 10.000000 
L_mid_tent01 0.000000 0.000000 0.000000 0.000000 0.000000 0.000000 10.000000 
R_mid_tent01 0.000000 0.000000 0.000000 0.000000 0.000000 0.000000 10.000000 
spine01 0.000000 0.000000 0.000000 0.000000 0.000000 0.000000 10.000000 
Bip01_Neck 0.000000 0.000000 0.000000 0.000000 0.000000 0.000000 10.000000 
L_humerus 0.000000 0.000000 0.000000 0.000000 0.000000 0.000000 10.000000 
R_humerus 0.000000 0.000000 0.000000 0.000000 0.000000 0.000000 10.000000 
weapon_bone 0.000000 0.000000 0.000000 0.000000 0.000000 0.000000 10.000000 
Bip01_Head 0.000000 0.000000 0.000000 0.000000 0.000000 0.000000 10.000000 
eye_left_bone 0.000000 0.000000 0.000000 0.000000 0.000000 0.000000 10.000000 
eye_right_bone 0.000000 0.000000 0.000000 0.000000 0.000000 0.000000 10.000000 
L_forearm 0.000000 0.000000 0.000000 0.000000 0.000000 0.000000 10.000000 
L_front_hand 0.000000 0.000000 0.000000 0.000000 0.000000 0.000000 10.000000 
L_weapon_bone 0.000000 0.000000 0.000000 0.000000 0.000000 0.000000 10.000000 
L_front_hand01_01 0.000000 0.000000 0.000000 0.000000 0.000000 0.000000 10.000000 
L_front_hand02_01 0.000000 0.000000 0.000000 0.000000 0.000000 0.000000 10.000000 
L_front_hand03_01 0.000000 0.000000 0.000000 0.000000 0.000000 0.000000 10.000000 
L_front_hand01_02 0.000000 0.000000 0.000000 0.000000 0.000000 0.000000 10.000000 
L_front_hand02_02 0.000000 0.000000 0.000000 0.000000 0.000000 0.000000 10.000000 
L_front_hand03_02 0.000000 0.000000 0.000000 0.000000 0.000000 0.000000 10.000000 
R_forearm 0.000000 0.000000 0.000000 0.000000 0.000000 0.000000 10.000000 
R_front_hand 0.000000 0.000000 0.000000 0.000000 0.000000 0.000000 10.000000 
R_weapon_bone 0.000000 0.000000 0.000000 0.000000 0.000000 0.000000 10.000000 
R_front_hand01_01 0.000000 0.000000 0.000000 0.000000 0.000000 0.000000 10.000000 
R_front_hand02_01 0.000000 0.000000 0.000000 0.000000 0.000000 0.000000 10.000000 
R_front_hand03_01 0.000000 0.000000 0.000000 0.000000 0.000000 0.000000 10.000000 
R_front_hand01_02 0.000000 0.000000 0.000000 0.000000 0.000000 0.000000 10.000000 
R_front_hand02_02 0.000000 0.000000 0.000000 0.000000 0.000000 0.000000 10.000000 
R_front_hand03_02 0.000000 0.000000 0.000000 0.000000 0.000000 0.000000 10.000000 
null_rope01_connect 0.000000 0.000000 0.000000 0.000000 0.000000 0.000000 10.000000 
Rope1_Seg01 0.000000 0.000000 0.000000 0.000000 0.000000 0.000000 10.000000 
Rope1_Seg02 0.000000 0.000000 0.000000 0.000000 0.000000 0.000000 10.000000 
Rope1_Seg03 0.000000 0.000000 0.000000 0.000000 0.000000 0.000000 10.000000 
Rope1_Seg04 0.000000 0.000000 0.000000 0.000000 0.000000 0.000000 10.000000 
Rope1_Seg05 0.000000 0.000000 0.000000 0.000000 0.000000 0.000000 10.000000 
Rope1_Seg06 0.000000 0.000000 0.000000 0.000000 0.000000 0.000000 10.000000 
Rope1_Seg07 0.000000 0.000000 0.000000 0.000000 0.000000 0.000000 10.000000 
Rope1_Seg09 0.000000 0.000000 0.000000 0.000000 0.000000 0.000000 10.000000 
L_mid_hand01 0.000000 0.000000 0.000000 0.000000 0.000000 0.000000 10.000000 
L_mid_hand02 0.000000 0.000000 0.000000 0.000000 0.000000 0.000000 10.000000 
L_mid_hand03 0.000000 0.000000 0.000000 0.000000 0.000000 0.000000 10.000000 
null_rope02_connect 0.000000 0.000000 0.000000 0.000000 0.000000 0.000000 10.000000 
Rope2_Seg01 0.000000 0.000000 0.000000 0.000000 0.000000 0.000000 10.000000 
Rope2_Seg02 0.000000 0.000000 0.000000 0.000000 0.000000 0.000000 10.000000 
Rope2_Seg03 0.000000 0.000000 0.000000 0.000000 0.000000 0.000000 10.000000 
Rope2_Seg04 0.000000 0.000000 0.000000 0.000000 0.000000 0.000000 10.000000 
Rope2_Seg05 0.000000 0.000000 0.000000 0.000000 0.000000 0.000000 10.000000 
Rope2_Seg06 0.000000 0.000000 0.000000 0.000000 0.000000 0.000000 10.000000 
Rope2_Seg07 0.000000 0.000000 0.000000 0.000000 0.000000 0.000000 10.000000 
Rope2_Seg09 0.000000 0.000000 0.000000 0.000000 0.000000 0.000000 10.000000 
R_mid_hand01 0.000000 0.000000 0.000000 0.000000 0.000000 0.000000 10.000000 
R_mid_hand02 0.000000 0.000000 0.000000 0.000000 0.000000 0.000000 10.000000 
R_mid_hand03 0.000000 0.000000 0.000000 0.000000 0.000000 0.000000 10.000000 
spine02 0.000000 0.000000 0.000000 0.000000 0.000000 0.000000 10.000000 
spine03 0.000000 0.000000 0.000000 0.000000 0.000000 0.000000 10.000000 
pelvis 0.000000 0.000000 0.000000 0.000000 0.000000 0.000000 10.000000 
null_rope03_connect 0.000000 0.000000 0.000000 0.000000 0.000000 0.000000 10.000000 
null_rope04_connect 0.000000 0.000000 0.000000 0.000000 0.000000 0.000000 10.000000 
Rope3_Seg01 0.000000 0.000000 0.000000 0.000000 0.000000 0.000000 10.000000 
Rope3_Seg02 0.000000 0.000000 0.000000 0.000000 0.000000 0.000000 10.000000 
Rope3_Seg03 0.000000 0.000000 0.000000 0.000000 0.000000 0.000000 10.000000 
Rope3_Seg04 0.000000 0.000000 0.000000 0.000000 0.000000 0.000000 10.000000 
Rope3_Seg05 0.000000 0.000000 0.000000 0.000000 0.000000 0.000000 10.000000 
Rope3_Seg06 0.000000 0.000000 0.000000 0.000000 0.000000 0.000000 10.000000 
Rope3_Seg07 0.000000 0.000000 0.000000 0.000000 0.000000 0.000000 10.000000 
Rope3_Seg08 0.000000 0.000000 0.000000 0.000000 0.000000 0.000000 10.000000 
Rope3_Seg09 0.000000 0.000000 0.000000 0.000000 0.000000 0.000000 10.000000 
R_rear_hand01 0.000000 0.000000 0.000000 0.000000 0.000000 0.000000 10.000000 
R_rear_hand02 0.000000 0.000000 0.000000 0.000000 0.000000 0.000000 10.000000 
R_rear_hand03 0.000000 0.000000 0.000000 0.000000 0.000000 0.000000 10.000000 
Rope4_Seg01 0.000000 0.000000 0.000000 0.000000 0.000000 0.000000 10.000000 
Rope4_Seg02 0.000000 0.000000 0.000000 0.000000 0.000000 0.000000 10.000000 
Rope4_Seg03 0.000000 0.000000 0.000000 0.000000 0.000000 0.000000 10.000000 
Rope4_Seg04 0.000000 0.000000 0.000000 0.000000 0.000000 0.000000 10.000000 
Rope4_Seg05 0.000000 0.000000 0.000000 0.000000 0.000000 0.000000 10.000000 
Rope4_Seg06 0.000000 0.000000 0.000000 0.000000 0.000000 0.000000 10.000000 
Rope4_Seg07 0.000000 0.000000 0.000000 0.000000 0.000000 0.000000 10.000000 
Rope4_Seg08 0.000000 0.000000 0.000000 0.000000 0.000000 0.000000 10.000000 
Rope4_Seg09 0.000000 0.000000 0.000000 0.000000 0.000000 0.000000 10.000000 
L_rear_hand01 0.000000 0.000000 0.000000 0.000000 0.000000 0.000000 10.000000 
L_rear_hand02 0.000000 0.000000 0.000000 0.000000 0.000000 0.000000 10.000000 
L_rear_hand03 0.000000 0.000000 0.000000 0.000000 0.000000 0.000000 10.000000 
#Beginning of Data. Separated by tabs
#Fr	Tx	Ty	Tz	Rx	Ry	Rz	SF
[MASTER]
17 0.000000 0.000000 0.000000 0.001660 0.001660 0.001660 0.000000
18 0.000000 0.000000 0.000000 0.001660 0.001660 0.001660 0.000000
[root]
17 -2.308064 -16.612389 504.615021 -91.772774 -11.164195 -88.593887 504.893677
18 -4.739327 -15.245529 522.811096 -90.092155 -10.782816 -89.676331 523.054871
[chest]
17 -84.512650 -34.090519 0.000000 -7.816082 3.512071 177.203979 91.129311
18 -84.512650 -34.090519 0.000000 -7.002492 3.954504 -178.766235 91.129311
[L_mid_tent01]
17 27.299557 22.177439 -249.918259 -11.490740 32.936504 64.688431 252.381134
18 27.299561 22.177431 -249.918259 -17.098524 34.355457 62.692005 252.381134
[R_mid_tent01]
17 23.228794 24.509907 226.238495 -158.694244 -24.973066 54.207298 228.744751
18 23.228794 24.509907 226.238495 -155.306458 -25.610336 53.479561 228.744751
[spine01]
17 -0.361383 -0.195265 0.000000 0.001845 0.001451 13.654368 0.410763
18 -0.361383 -0.195265 0.000000 0.001845 0.001451 13.654368 0.410763
[Bip01_Neck]
17 165.484543 71.581718 0.000119 176.643677 -1.657967 43.431911 180.302734
18 165.484543 71.581718 0.000119 176.643677 -1.657967 43.431911 180.302734
[L_humerus]
17 -13.983130 -135.272980 -120.471481 152.044342 51.283699 -149.751297 181.680161
18 -13.983130 -135.272980 -120.471481 143.415329 59.126488 -148.878693 181.680161
[R_humerus]
17 -13.983309 -135.273102 125.287651 -141.746292 -35.374821 -153.266678 184.909012
18 -13.983309 -135.273102 125.287651 -130.798828 -41.129208 -154.183853 184.909012
[weapon_bone]
17 235.964890 -300.705902 0.000000 0.000000 -89.951546 -128.212341 382.234833
18 235.964890 -300.705902 0.000000 0.000000 -89.951546 -128.212341 382.234833
[Bip01_Head]
17 181.141510 164.364273 7.850427 3.973274 5.240003 -34.671497 244.723282
18 170.617615 157.227219 7.946301 3.566534 4.935029 -31.707954 232.150620
[eye_left_bone]
17 -24.626970 125.451866 -64.772606 0.000000 -90.000000 -99.840431 143.318359
18 -24.626970 125.451866 -64.772606 0.000000 -90.000000 -99.840431 143.318359
[eye_right_bone]
17 -24.626970 125.451866 64.327362 0.000000 -89.965736 80.156380 143.117676
18 -24.626970 125.451866 64.327362 0.000000 -89.965736 80.156380 143.117676
[L_forearm]
17 322.776093 0.000000 -0.000119 0.000614 -0.002266 -120.304344 322.776093
18 322.776093 0.000000 -0.000119 0.000651 -0.002255 -122.222519 322.776093
[L_front_hand]
17 241.149185 -0.042021 -3.300071 -178.667953 -1.835447 -27.422350 241.171753
18 241.149185 -0.042021 -3.300071 -178.667953 -1.835447 -27.422342 241.171753
[L_weapon_bone]
17 156.183838 0.000000 0.000000 0.000014 0.000007 0.000001 156.183838
18 156.183838 0.000000 0.000000 0.000014 0.000007 0.000001 156.183838
[L_front_hand01_01]
17 86.095154 20.947098 -0.655860 0.148614 -0.579930 23.539768 88.609184
18 86.095154 20.947098 -0.655860 -0.100150 -0.591328 47.224133 88.609184
[L_front_hand02_01]
17 86.935165 -11.437475 24.513514 119.067970 -21.349339 -11.786819 91.046425
18 86.935165 -11.437475 24.513514 127.052177 -41.325153 -26.843365 91.046425
[L_front_hand03_01]
17 86.637497 -14.123976 -20.424902 -120.323029 20.003283 -13.983611 90.126129
18 86.637497 -14.123976 -20.424902 -128.080673 39.719639 -29.266466 90.126129
[L_front_hand01_02]
17 71.020905 -0.000179 0.000030 0.000938 0.002152 -42.876865 71.020905
18 71.020905 -0.000179 0.000030 0.000370 0.002318 -71.881920 71.020905
[L_front_hand02_02]
17 71.020927 -0.000119 0.000060 0.000938 0.002152 -42.876865 71.020927
18 71.020927 -0.000119 0.000060 0.000370 0.002318 -71.881920 71.020927
[L_front_hand03_02]
17 71.020905 -0.000060 0.000060 0.000938 0.002152 -42.876865 71.020905
18 71.020905 -0.000060 0.000060 0.000370 0.002318 -71.881920 71.020905
[R_forearm]
17 322.776428 -0.000060 0.000030 0.191213 0.088701 -116.166245 322.776428
18 322.776428 -0.000060 0.000030 0.188024 0.098636 -118.061829 322.776428
[R_front_hand]
17 238.847015 -0.006795 2.210259 -2.635298 -10.645461 -26.312506 238.857239
18 238.847015 -0.006795 2.210259 -2.635298 -10.645461 -26.312506 238.857239
[R_weapon_bone]
17 155.664093 0.002503 -0.000030 0.003487 0.001180 -90.988930 155.664078
18 155.664093 0.002503 -0.000030 0.003487 0.001180 -90.988930 155.664078
[R_front_hand01_01]
17 87.624611 14.231146 22.918642 -119.094788 -21.477068 11.970276 91.683487
18 87.624611 14.231146 22.918642 -127.131554 -41.440151 27.074446 91.683487
[R_front_hand02_01]
17 89.356956 14.367283 -19.491137 120.422668 20.397121 14.476004 92.579636
18 89.356956 14.367283 -19.491137 128.331253 40.073746 29.885565 92.579636
[R_front_hand03_01]
17 87.286232 -22.307278 -0.143439 -0.233810 -0.391628 -23.930384 90.091743
18 87.286232 -22.307278 -0.143439 -0.058653 -0.451096 -47.608379 90.091743
[R_front_hand01_02]
17 71.020905 0.000060 0.000119 0.002152 0.000938 42.875114 71.020905
18 71.020905 0.000060 0.000119 0.002318 0.000369 71.886017 71.020905
[R_front_hand02_02]
17 71.020844 -0.000030 -0.000119 0.002152 0.000938 42.875114 71.020836
18 71.020844 -0.000030 -0.000119 0.002318 0.000369 71.886017 71.020836
[R_front_hand03_02]
17 71.020905 0.000000 0.000030 0.002152 0.000938 42.875114 71.020905
18 71.020905 0.000000 0.000030 0.002318 0.000369 71.886017 71.020905
[null_rope01_connect]
17 328.732483 0.000000 -0.000238 -166.073547 -53.920410 -160.368317 328.732483
18 328.732483 0.000000 -0.000238 -170.911377 -52.062317 -156.207077 328.732483
[Rope1_Seg01]
17 0.000000 0.000000 0.000000 113.406929 -39.386650 159.461136 0.000000
18 0.000000 0.000000 0.000000 114.912308 -37.949764 156.466034 0.000000
[Rope1_Seg02]
17 139.999863 -0.000179 0.000000 -1.556287 -11.968581 -7.519612 139.999863
18 139.999863 -0.000179 0.000000 -1.713720 -10.378520 -7.183354 139.999863
[Rope1_Seg03]
17 139.999924 0.000060 -0.000060 -2.542706 -20.572559 -14.922369 139.999924
18 139.999924 0.000060 -0.000060 -2.573832 -17.955460 -14.063855 139.999924
[Rope1_Seg04]
17 139.999924 -0.000060 -0.000119 -2.092546 -21.317047 -21.527151 139.999924
18 139.999924 -0.000060 -0.000119 -1.347022 -20.976686 -23.489206 139.999924
[Rope1_Seg05]
17 139.999832 0.000119 -0.000060 -1.819199 -12.394981 -10.578384 139.999832
18 139.999832 0.000119 -0.000060 -1.096198 -12.733964 -12.136852 139.999832
[Rope1_Seg06]
17 139.999954 0.000119 -0.000060 -2.631161 -15.187237 -7.549088 139.999954
18 139.999954 0.000119 -0.000060 -1.973531 -15.453446 -6.623266 139.999954
[Rope1_Seg07]
17 139.999985 0.000060 0.000000 -3.479502 -13.916096 -9.060190 139.999985
18 139.999985 0.000060 0.000000 -3.397850 -15.778149 -8.372455 139.999985
[Rope1_Seg09]
17 121.602913 0.000119 -0.000089 -89.793175 -1.359789 0.847147 121.602913
18 121.602913 0.000119 -0.000089 -89.793175 -1.359789 0.847147 121.602913
[L_mid_hand01]
17 103.859421 1.038730 8.195221 109.056198 -40.604698 -13.201401 104.187431
18 103.859421 1.038730 8.195221 109.056198 -40.604698 -13.201401 104.187431
[L_mid_hand02]
17 105.572853 -4.139662 -10.864139 -146.713593 31.476528 -37.902313 106.211075
18 105.572853 -4.139662 -10.864139 -146.713593 31.476517 -37.902306 106.211075
[L_mid_hand03]
17 104.641464 17.579376 -3.913581 -14.267233 12.322316 43.898396 106.179977
18 104.641464 17.579376 -3.913581 -14.267233 12.322316 43.898396 106.179977
[null_rope02_connect]
17 328.732849 0.000179 -0.000119 -173.774078 59.259296 -35.640343 328.732849
18 328.732849 0.000179 -0.000119 -179.027649 55.096214 -40.537590 328.732849
[Rope2_Seg01]
17 0.000076 0.000111 0.000153 -49.219543 -36.851105 45.139023 0.000204
18 0.000076 0.000111 0.000153 -49.004860 -37.534569 44.569691 0.000204
[Rope2_Seg02]
17 139.999741 -0.000060 -0.000119 1.401801 4.189208 6.426053 139.999756
18 139.999741 -0.000060 -0.000119 1.395386 3.954596 6.620760 139.999756
[Rope2_Seg03]
17 140.000107 0.000030 0.000000 1.992042 6.602213 9.744884 140.000107
18 140.000107 0.000030 0.000000 2.272601 6.804809 10.955618 140.000107
[Rope2_Seg04]
17 139.999802 0.000000 -0.000060 2.116961 11.904856 12.420177 139.999802
18 139.999802 0.000000 -0.000060 3.312641 13.878151 17.343189 139.999802
[Rope2_Seg05]
17 139.999985 -0.000060 0.000119 0.749495 11.362241 15.239816 139.999985
18 139.999985 -0.000060 0.000119 1.508986 13.663984 20.265875 139.999985
[Rope2_Seg06]
17 139.999893 -0.000030 -0.000119 1.534897 6.815668 33.127186 139.999893
18 139.999893 -0.000030 -0.000119 0.714748 5.134886 27.632917 139.999893
[Rope2_Seg07]
17 139.999893 0.000060 -0.000060 4.198723 5.328599 28.179195 139.999893
18 139.999893 0.000060 -0.000060 2.407571 3.744919 21.149815 139.999893
[Rope2_Seg09]
17 121.338966 0.000089 -0.000060 33.793236 -1.359788 -0.847141 121.338966
18 121.338966 0.000089 -0.000060 33.793236 -1.359788 -0.847141 121.338966
[R_mid_hand01]
17 104.680779 11.144459 -10.335981 -37.204079 31.906813 37.576260 105.778534
18 104.680779 11.144459 -10.335981 -37.204067 31.906805 37.576252 105.778534
[R_mid_hand02]
17 104.070427 2.443552 8.231699 70.367462 -42.427391 14.067809 104.424065
18 104.070427 2.443552 8.231699 70.367462 -42.427391 14.067809 104.424065
[R_mid_hand03]
17 106.028137 -11.221827 -5.996406 -169.893616 12.226661 -47.211018 106.788818
18 106.028137 -11.221827 -5.996406 -169.893616 12.226661 -47.211029 106.788818
[spine02]
17 129.756927 0.001550 0.000119 -1.023899 -3.926965 6.770993 129.756927
18 129.756927 0.001550 0.000119 -1.023899 -3.926965 6.770993 129.756927
[spine03]
17 78.613846 0.087372 -4.898873 1.040681 4.146420 4.212376 78.766380
18 78.613846 0.087372 -4.898873 1.040681 4.146420 4.212376 78.766380
[pelvis]
17 169.435242 0.051022 0.000000 0.019518 -0.190233 -10.721436 169.435257
18 169.435242 0.051022 0.000000 0.019518 -0.190233 -10.721436 169.435257
[null_rope03_connect]
17 -1.257226 -2.466202 137.391083 153.651596 -87.718613 -66.297653 137.418976
18 -1.257226 -2.466202 137.391083 0.000000 -89.526459 86.952599 137.418976
[null_rope04_connect]
17 -1.259640 -2.480268 -137.844437 153.651596 -87.718613 -66.297653 137.872513
18 -1.259640 -2.480268 -137.844437 0.000000 -89.526459 86.952599 137.872513
[Rope3_Seg01]
17 0.000000 0.000000 0.000000 -178.315643 -41.034260 -20.575678 0.000000
18 0.000000 0.000000 0.000000 -171.631256 -38.345554 -23.902752 0.000000
[Rope3_Seg02]
17 139.999924 -0.000119 0.000060 11.841969 -8.167143 4.623564 139.999924
18 139.999924 -0.000119 0.000060 12.235403 -8.529765 5.972892 139.999924
[Rope3_Seg03]
17 139.999924 -0.000119 0.000119 18.171198 -12.950302 11.744627 139.999924
18 139.999924 -0.000119 0.000119 16.415012 -12.290623 13.716718 139.999924
[Rope3_Seg04]
17 139.999924 0.000119 0.000000 14.679792 -12.952178 28.220490 139.999924
18 139.999924 0.000119 0.000000 11.281703 -9.427330 26.737106 139.999924
[Rope3_Seg05]
17 139.999924 -0.000238 0.000060 4.121006 -3.446242 23.791502 139.999924
18 139.999924 -0.000238 0.000060 3.205013 -3.203816 20.227310 139.999924
[Rope3_Seg06]
17 139.999893 -0.000119 -0.000060 0.096128 -6.013298 16.666063 139.999893
18 139.999893 -0.000119 -0.000060 -0.216184 -7.959588 17.701368 139.999893
[Rope3_Seg07]
17 139.999771 0.000060 -0.000119 -5.686955 -11.641882 23.495907 139.999771
18 139.999771 0.000060 -0.000119 -6.526834 -13.441292 24.697395 139.999771
[Rope3_Seg08]
17 139.999985 -0.000060 0.000000 -5.384538 -6.968710 14.907706 139.999985
18 139.999985 -0.000060 0.000000 -4.894349 -7.221937 13.608640 139.999985
[Rope3_Seg09]
17 90.185997 -0.000179 -0.000060 89.793228 -1.359877 -0.847183 90.185997
18 90.185997 -0.000179 -0.000060 89.793228 -1.359877 -0.847183 90.185997
[R_rear_hand01]
17 103.366196 -6.073594 -10.757982 -164.755127 19.627697 -40.352161 104.101845
18 103.366196 -6.073594 -10.757982 -164.755127 19.627697 -40.352161 104.101845
[R_rear_hand02]
17 100.509819 12.039542 -7.992327 -30.792652 24.782448 38.141541 101.543350
18 100.509819 12.039542 -7.992327 -30.792645 24.782444 38.141533 101.543350
[R_rear_hand03]
17 101.539970 5.215704 5.435467 82.448349 -41.048256 8.840378 101.819031
18 101.539970 5.215704 5.435467 82.448349 -41.048256 8.840378 101.819031
[Rope4_Seg01]
17 0.000001 -0.000050 -0.000046 74.048752 -38.291084 -137.317520 0.000068
18 0.000002 -0.000048 -0.000040 72.333344 -40.345741 -132.868896 0.000062
[Rope4_Seg02]
17 139.999985 0.000060 0.000119 -22.896597 9.244573 -26.652439 139.999985
18 139.999985 0.000060 0.000119 -20.125917 8.439660 -26.303673 139.999985
[Rope4_Seg03]
17 139.999924 0.000000 -0.000238 -12.378099 12.451112 -14.764663 139.999924
18 139.999924 0.000000 -0.000238 -13.636411 13.058567 -17.898663 139.999924
[Rope4_Seg04]
17 139.999985 0.000000 0.000119 -3.532071 6.265974 -4.950309 139.999985
18 139.999985 0.000000 0.000119 -3.941593 7.093037 -6.200081 139.999985
[Rope4_Seg05]
17 139.999802 -0.000060 -0.000119 -4.468847 9.960606 -7.327771 139.999802
18 139.999802 -0.000060 -0.000119 -3.946744 8.988125 -7.461267 139.999802
[Rope4_Seg06]
17 139.999924 0.000000 0.000060 -10.236159 32.576191 -23.953625 139.999924
18 139.999924 0.000000 0.000060 -9.470799 28.394030 -23.704615 139.999924
[Rope4_Seg07]
17 139.999802 0.000000 0.000000 3.577811 29.773338 -18.679823 139.999802
18 139.999802 0.000000 0.000000 1.443786 30.060858 -22.218763 139.999802
[Rope4_Seg08]
17 139.999924 0.000000 0.000119 3.755032 9.684449 -7.602300 139.999924
18 139.999924 0.000000 0.000119 3.318297 10.139597 -8.803356 139.999924
[Rope4_Seg09]
17 90.185791 0.000060 0.000060 -135.617828 2.228885 0.850567 90.185791
18 90.185791 0.000060 0.000060 -135.617828 2.228885 0.850567 90.185791
[L_rear_hand01]
17 101.696655 -8.392275 -7.654577 -31.684452 -23.583008 144.025742 102.329041
18 101.696655 -8.392275 -7.654577 -31.684452 -23.583008 144.025742 102.329041
[L_rear_hand02]
17 102.726799 -1.568258 5.773216 82.701553 38.753956 171.553619 102.900848
18 102.726799 -1.568258 5.773216 82.701553 38.753956 171.553619 102.900848
[L_rear_hand03]
17 104.552910 9.721220 -10.420293 -163.975403 -19.004421 -142.009338 105.519653
18 104.552910 9.721220 -10.420293 -163.975388 -19.004416 -142.009338 105.519653
